PathFileType	4	(X/Y/Z)	Run_200 02
DataRate	CameraRate	NumFrames	NumMarkers	Units	OrigDataRate	OrigDataStartFrame	OrigNumFrames
100	100	7	42	mm	100	179	128
Frame#	Time	LPSI			RPSI			RTH1			RTH2			RTH3			LTH1			LTH2			LTH3			RTB1			RTB2			RTB3			LTB1			LTB2			LTB3			RCAL			RTOE			RMT5			LCAL			LTOE			LMT5			LACR			RACR			CLAV			C7			RUA1			RUA2			RUA3			RLEL			RMEL			LUA1			LUA2			LUA3			LLEL			LMEL			RFAsuperior			RFAradius			RFAulna			LFAsuperior			LFAradius			LFAulna			RASI			LASI			
		X1	Y1	Z1	X2	Y2	Z2	X3	Y3	Z3	X4	Y4	Z4	X5	Y5	Z5	X6	Y6	Z6	X7	Y7	Z7	X8	Y8	Z8	X9	Y9	Z9	X10	Y10	Z10	X11	Y11	Z11	X12	Y12	Z12	X13	Y13	Z13	X14	Y14	Z14	X15	Y15	Z15	X16	Y16	Z16	X17	Y17	Z17	X18	Y18	Z18	X19	Y19	Z19	X20	Y20	Z20	X21	Y21	Z21	X22	Y22	Z22	X23	Y23	Z23	X24	Y24	Z24	X25	Y25	Z25	X26	Y26	Z26	X27	Y27	Z27	X28	Y28	Z28	X29	Y29	Z29	X30	Y30	Z30	X31	Y31	Z31	X32	Y32	Z32	X33	Y33	Z33	X34	Y34	Z34	X35	Y35	Z35	X36	Y36	Z36	X37	Y37	Z37	X38	Y38	Z38	X39	Y39	Z39	X40	Y40	Z40	X41	Y41	Z41	X42	Y42	Z42	

162	2.42	602.718265	1063.457525	-506.754343	599.41909	1064.449434	-422.156726	710.978822	863.055707	-263.718039	777.930749	728.584336	-268.537892	711.214117	617.855185	-289.264557	749.422555	870.846666	-641.1157920000001	850.050128	779.2927089999999	-619.414223	809.597349	632.453928	-623.8389079999999	731.219246	366.262751	-342.763554	643.444301	294.081069	-301.452578	625.86464	196.530855	-364.635772	799.482499	422.120951	-569.062549	706.970645	421.499103	-639.5574329999999	627.837553	311.578436	-572.922879	450.88287	109.1608	-396.607923	681.921579	66.780483	-361.097646	633.503205	50.534452	-276.909662	437.849266	326.328282	-561.333652	563.605735	131.432393	-577.521263	517.693625	133.946571	-656.7849210000001	787.4838109999999	1524.044894	-595.822734	739.995016	1487.82237	-259.546399	839.556988	1456.573246	-396.49935	706.28794	1543.021302	-445.551427	681.9704369999999	1370.181176	-188.458644	608.747251	1295.912967	-214.645732	648.796392	1253.940302	-165.824878	638.830859	1159.278689	-148.0039	604.964639	1142.103565	-222.855764	731.3495380000001	1450.562098	-706.882689	650.585638	1390.348116	-712.240004	692.6081830000001	1362.226852	-777.402139	682.029643	1284.01787	-824.574702	609.317492	1265.149246	-792.615372	709.9102339999999	1120.148518	-164.555516	893.619178	1137.063139	-258.665037	871.988109	1068.819756	-248.987778	739.776549	1186.67175	-762.915894	806.310745	1141.690478	-626.847653	770.675736	1092.520543	-658.353165	780.6632990000001	988.190939	-320.993205	794.599116	987.235474	-579.9630529999999	
163	2.43	602.718826	1069.054362	-506.875636	599.514134	1069.361924	-422.322599	707.651899	866.591411	-265.326002	770.676991	730.573439	-270.595637	699.560387	622.085582	-290.996808	750.774692	877.836601	-641.853608	852.989682	788.09138	-619.812563	814.734751	640.220097	-623.9949319999999	714.764332	369.331146	-344.137867	626.313932	298.232538	-302.058651	608.273104	200.142969	-364.470658	811.161593	428.231827	-568.778988	718.487091	422.3155	-638.95189	644.956226	308.992661	-571.438144	432.843237	114.923432	-395.998354	662.167412	66.801948	-360.495957	613.504268	50.892328	-276.744285	453.894246	313.443524	-560.663754	591.039982	126.084517	-574.212833	545.464742	128.511108	-653.843935	784.43781	1530.592832	-597.373319	741.845011	1493.916436	-261.184811	839.8297250000001	1462.890593	-399.400027	705.783911	1548.608699	-446.46133	685.824063	1375.674164	-189.456121	613.325205	1300.6725	-213.830661	655.538857	1258.507624	-166.888219	646.8969509999999	1163.474451	-150.11102	612.661864	1146.129664	-224.844255	724.514308	1460.078721	-707.814193	642.879822	1401.273123	-712.228442	683.018069	1373.762899	-779.212865	669.146307	1296.397727	-827.046458	596.678934	1279.046987	-793.586661	719.175571	1127.364951	-168.061598	900.089195	1152.569576	-265.325252	882.48128	1083.595096	-253.464243	726.1513200000001	1197.977221	-766.869903	794.75315	1151.240266	-632.779858	756.927927	1102.916832	-662.907469	780.305823	991.239277	-321.106376	794.079206	993.669858	-580.444441	
164	2.44	603.016707	1075.342694	-507.08071	599.916319	1075.217567	-422.467418	704.80372	870.817651	-267.0261	763.950513	733.309003	-273.049676	688.612304	627.096806	-293.064087	752.232695	885.480309	-642.726906	855.732313	797.339101	-620.010375	819.201561	648.507559	-624.472136	698.749408	373.424373	-345.911895	609.654762	303.395976	-302.719007	591.460158	204.616265	-364.375369	822.14356	434.685406	-568.935197	729.356238	422.976749	-638.579754	662.3005450000001	306.070382	-570.332749	415.659057	121.783998	-395.466292	641.9864679999999	66.591904	-359.475586	593.572644	51.602925	-276.33391	470.951415	299.384932	-559.8935320000001	619.627887	120.867884	-571.246309	574.320117	122.862476	-651.219424	781.38372	1537.899827	-599.044307	743.861133	1500.714755	-263.115915	840.045673	1470.009211	-402.632483	705.229165	1554.810398	-447.614986	689.733862	1381.88114	-190.743018	617.721047	1306.165766	-213.360198	662.009814	1264.142399	-167.828259	654.53961	1168.79083	-152.281617	619.698432	1151.298431	-226.675608	718.107361	1470.368437	-708.6906770000001	635.697837	1413.429597	-712.3687650000001	673.863881	1385.963404	-780.676918	656.654294	1309.521287	-829.16233	584.360173	1293.598738	-794.077172	727.557699	1135.333435	-171.458027	905.502598	1168.296056	-271.766766	891.902564	1098.7695	-258.469389	712.988505	1210.111178	-770.503149	783.7015720000001	1161.787314	-638.309738	743.8951499999999	1114.246909	-667.0720710000001	780.477976	994.972387	-321.517753	793.680879	1001.206859	-581.333143	
165	2.45	603.7366960000001	1082.053684	-507.419296	600.811603	1081.428927	-422.437196	702.685671	875.466213	-268.745065	757.828658	736.635165	-275.77017	678.567525	632.692854	-295.300289	753.783739	893.643907	-643.826865	858.028531	806.7238139999999	-620.041159	822.922999	657.113897	-625.293491	683.301797	378.360844	-347.548604	593.671376	309.388929	-303.431927	575.508628	209.885441	-364.34191	832.148189	441.181869	-569.4399069999999	739.565254	423.513675	-638.510325	679.884713	302.839929	-569.884446	399.42671	129.747645	-394.97136	621.439042	65.892054	-358.658074	573.826327	52.502905	-275.968777	489.193713	284.230419	-558.987618	649.430186	116.11266	-569.087255	604.1237149999999	116.497401	-649.032304	778.427532	1545.693241	-600.775302	745.998955	1508.139793	-265.180202	840.149913	1477.71084	-406.056105	704.638867	1561.416924	-448.972075	693.723788	1388.691092	-192.160403	621.889952	1312.323834	-213.315294	667.978255	1270.544571	-168.892915	661.675824	1174.975982	-154.284342	626.071017	1157.353838	-228.31546	712.298365	1481.070265	-709.564298	628.984417	1426.642836	-713.078361	665.240978	1398.441706	-781.893391	644.676733	1322.963412	-830.917788	572.638764	1308.58291	-794.374699	735.113871	1144.057694	-174.575487	910.002116	1183.879149	-277.873232	900.121302	1113.874687	-264.018851	700.330874	1222.638955	-773.834822	773.374554	1172.823083	-643.524927	731.654057	1126.100414	-670.897649	781.102063	999.397967	-322.164074	793.469336	1009.545874	-582.669987	
166	2.46	604.9055499999999	1088.888256	-507.871703	602.2633499999999	1087.486843	-422.442629	701.629926	880.12909	-270.648533	752.389545	740.363732	-278.668874	669.3125199999999	638.757124	-297.440568	755.358883	902.191046	-645.146059	859.717482	815.964319	-619.991792	825.758509	665.755511	-626.3946079999999	668.587497	383.976677	-348.903304	578.499622	316.008647	-304.171694	560.461042	215.816905	-364.288693	841.111491	447.42029	-570.403124	749.088571	423.823742	-638.729817	697.724691	299.350151	-570.1743760000001	384.190461	138.690352	-394.564986	601.174612	64.798036	-358.778266	554.389309	53.457776	-275.841536	508.547581	268.084844	-557.785798	680.218618	111.912564	-567.92742	634.5588320000001	109.159236	-647.2493040000001	775.6784740000001	1553.665368	-602.571538	748.1479440000001	1515.924241	-267.374026	840.105582	1485.762947	-409.57555	704.031837	1568.260171	-450.511598	697.764739	1395.950985	-193.610353	625.865563	1319.155392	-213.718273	673.284508	1277.437605	-170.335088	668.171382	1181.816548	-155.581798	631.714914	1164.064613	-229.77817	707.1104340000001	1491.823021	-710.461587	622.6771670000001	1440.157218	-714.053408	657.140038	1410.842873	-782.948965	633.260957	1336.371483	-832.329755	561.869717	1323.781445	-794.84091	741.878992	1153.292581	-177.455518	913.729904	1199.07337	-283.492169	906.9018600000001	1128.657393	-269.714607	688.308085	1235.254132	-776.873951	763.9375219999999	1183.995236	-648.593657	720.300688	1138.138225	-674.3780870000001	782.070063	1004.324893	-323.140095	793.560418	1018.427696	-584.491753	
167	2.47	606.162024	1095.702423	-508.225114	604.062422	1093.392919	-422.889676	701.728301	884.606802	-272.832547	747.667633	744.347108	-281.643738	660.726815	645.181125	-299.34218	756.86715	910.918487	-646.579279	860.812322	824.816068	-620.025799	827.533786	674.099386	-627.67489	654.753618	390.141175	-350.061193	564.240078	323.100013	-304.85432	546.4517080000001	222.204087	-364.088053	849.099091	453.167299	-571.972762	757.942644	423.698458	-639.2299400000001	715.791291	295.674256	-570.996111	370.060503	148.452049	-394.371114	581.861745	63.835136	-359.740933	535.2731680000001	54.458314	-275.939693	528.8789860000001	251.143443	-556.200396	711.619878	108.235356	-567.7118	665.389903	101.33539	-645.993633	773.190156	1561.513181	-604.4594980000001	750.234301	1523.700534	-269.790503	839.891228	1493.938037	-413.155342	703.430553	1575.193281	-452.240475	701.737265	1403.509648	-195.06874	629.653314	1326.56086	-214.516971	677.891019	1284.693228	-172.115883	673.956518	1189.276503	-155.836682	636.544793	1171.254397	-231.092613	702.47775	1502.320015	-711.394679	616.815546	1453.188681	-714.717971	649.50976	1422.914723	-783.827702	622.439883	1349.472327	-833.44394	552.207269	1338.770489	-795.410431	747.894933	1162.642672	-180.277906	916.7799189999999	1213.670989	-288.567129	912.074487	1142.983465	-275.214144	677.067331	1247.680085	-779.655903	755.451397	1195.052662	-653.66314	709.921305	1150.063404	-677.527862	783.305668	1009.492548	-324.507545	794.018873	1027.80705	-586.907231	
168	2.48	606.958047	1102.488468	-508.173765	605.967121	1099.420938	-423.860212	702.6241240000001	889.025183	-275.128201	743.545127	748.5328029999999	-284.516284	652.852288	651.841512	-301.057502	758.211756	919.550191	-648.010344	861.43415	833.060381	-620.370167	828.1036340000001	681.810487	-629.039233	641.896371	396.714358	-351.032127	551.035611	330.534244	-305.382431	533.666329	228.828912	-363.656393	856.155178	458.334653	-574.072884	766.224308	422.937683	-640.081897	733.960449	291.915519	-571.995304	357.247067	158.951908	-394.439006	563.542785	63.574515	-360.581802	516.4155469999999	55.565699	-276.174805	550.263816	233.741338	-554.464454	743.340499	105.142535	-568.3053640000001	696.580697	93.92746699999999	-645.5113239999999	770.9282040000001	1569.002483	-606.429813	752.223841	1531.221018	-272.475335	839.503404	1502.028818	-416.782438	702.859134	1582.058453	-454.17058	705.445565	1411.290181	-196.497915	633.132601	1334.294218	-215.589269	681.841245	1292.283072	-173.908628	679.008406	1197.30339	-155.523086	640.527186	1178.738733	-232.279966	698.307733	1512.351675	-712.395952	611.494155	1465.37083	-714.89195	642.3243210000001	1434.493564	-784.501168	612.28776	1362.023924	-834.335183	543.462247	1352.993814	-795.5925549999999	753.153715	1171.857138	-183.096226	919.171049	1227.461465	-293.158162	915.731328	1156.641896	-280.58609	666.707214	1259.637673	-782.236902	747.894333	1205.781927	-658.705288	700.613723	1161.599328	-680.45686	784.770101	1014.735561	-326.124383	794.788428	1037.530849	-589.761421	
